<svg width="239" height="174" viewBox="0 0 239 174" fill="none" xmlns="http://www.w3.org/2000/svg">
<path d="M104.669 173.228H97.7378V125.67H107.617C109.662 125.67 111.335 125.776 112.609 125.988C113.884 126.201 114.92 126.679 115.637 127.369C116.354 128.06 116.885 129.042 117.151 130.317C117.416 131.591 117.549 133.264 117.549 135.335V140.328C117.549 141.576 117.416 142.585 117.151 143.355C116.885 144.125 116.54 144.762 116.141 145.24C115.717 145.718 115.265 146.063 114.761 146.302C114.256 146.515 113.778 146.701 113.273 146.807V147.046C113.911 147.205 114.495 147.417 115.026 147.683C115.557 147.949 116.009 148.347 116.38 148.878C116.752 149.409 117.044 150.099 117.257 150.949C117.469 151.799 117.549 152.861 117.549 154.189V173.148H110.565V153.1C110.565 151.825 110.405 150.923 110.087 150.418C109.768 149.914 108.998 149.675 107.803 149.675H104.669V173.148V173.228ZM104.669 144.284H107.803C108.918 144.284 109.662 144.072 110.033 143.62C110.405 143.169 110.565 142.372 110.565 141.204V135.362C110.565 134.592 110.538 133.981 110.485 133.53C110.432 133.078 110.299 132.707 110.087 132.414C109.874 132.122 109.582 131.936 109.184 131.83C108.785 131.724 108.254 131.671 107.617 131.671H104.669V144.258V144.284Z" fill="#272A5F"/>
<path d="M141.689 163.775C141.689 165.979 141.556 167.758 141.291 169.059C141.025 170.387 140.52 171.396 139.777 172.113C139.033 172.803 138.024 173.281 136.749 173.494C135.475 173.706 133.802 173.812 131.757 173.812C129.712 173.812 128.039 173.706 126.764 173.494C125.489 173.281 124.48 172.803 123.763 172.113C123.046 171.422 122.542 170.387 122.303 169.059C122.037 167.731 121.904 165.979 121.904 163.775V135.07C121.904 132.866 122.037 131.113 122.303 129.812C122.568 128.511 123.046 127.502 123.763 126.812C124.48 126.121 125.489 125.643 126.764 125.431C128.039 125.218 129.712 125.112 131.757 125.112C133.802 125.112 135.475 125.218 136.749 125.431C138.024 125.643 139.06 126.121 139.777 126.812C140.52 127.502 141.025 128.511 141.291 129.812C141.556 131.113 141.689 132.866 141.689 135.07V163.775ZM134.705 135.07C134.705 134.273 134.678 133.609 134.625 133.105C134.572 132.6 134.412 132.229 134.2 131.963C133.987 131.697 133.669 131.512 133.297 131.432C132.925 131.352 132.421 131.273 131.836 131.273C130.562 131.273 129.738 131.512 129.367 131.99C128.995 132.468 128.836 133.503 128.836 135.07V163.775C128.836 164.625 128.862 165.288 128.915 165.793C128.968 166.297 129.128 166.696 129.34 166.961C129.553 167.227 129.871 167.439 130.243 167.519C130.615 167.625 131.119 167.678 131.704 167.678C132.341 167.678 132.872 167.625 133.27 167.519C133.669 167.413 133.987 167.227 134.2 166.908C134.412 166.616 134.572 166.218 134.625 165.713C134.678 165.209 134.705 164.571 134.705 163.748V135.043V135.07Z" fill="#272A5F"/>
<path d="M165.723 163.775C165.723 165.979 165.59 167.758 165.324 169.059C165.059 170.387 164.554 171.396 163.81 172.113C163.067 172.803 162.058 173.281 160.783 173.494C159.508 173.706 157.835 173.812 155.79 173.812C153.746 173.812 152.072 173.706 150.798 173.494C149.523 173.281 148.514 172.803 147.797 172.113C147.08 171.422 146.575 170.387 146.336 169.059C146.071 167.731 145.938 165.979 145.938 163.775V135.07C145.938 132.866 146.071 131.113 146.336 129.812C146.602 128.511 147.08 127.502 147.797 126.812C148.514 126.121 149.523 125.643 150.798 125.431C152.072 125.218 153.746 125.112 155.79 125.112C157.835 125.112 159.508 125.218 160.783 125.431C162.058 125.643 163.093 126.121 163.81 126.812C164.554 127.502 165.059 128.511 165.324 129.812C165.59 131.113 165.723 132.866 165.723 135.07V163.775ZM158.738 135.07C158.738 134.273 158.712 133.609 158.659 133.105C158.605 132.6 158.446 132.229 158.234 131.963C158.021 131.697 157.702 131.512 157.331 131.432C156.959 131.352 156.454 131.273 155.87 131.273C154.595 131.273 153.772 131.512 153.4 131.99C153.029 132.468 152.869 133.503 152.869 135.07V163.775C152.869 164.625 152.896 165.288 152.949 165.793C153.002 166.297 153.161 166.696 153.374 166.961C153.586 167.227 153.905 167.439 154.277 167.519C154.648 167.625 155.153 167.678 155.737 167.678C156.375 167.678 156.906 167.625 157.304 167.519C157.702 167.413 158.021 167.227 158.234 166.908C158.446 166.616 158.605 166.218 158.659 165.713C158.712 165.209 158.738 164.571 158.738 163.748V135.043V135.07Z" fill="#272A5F"/>
<path d="M197.272 125.67V173.228H191.615V139.637H191.376L186.994 173.228H180.807L176.398 139.398H176.159V173.228H170.45V125.67H180.143L183.754 157.641H183.993L187.658 125.67H197.298H197.272Z" fill="#272A5F"/>
<path d="M214.587 141.071V135.176C214.587 134.326 214.56 133.662 214.507 133.131C214.454 132.6 214.321 132.229 214.109 131.963C213.896 131.697 213.604 131.512 213.206 131.432C212.807 131.326 212.276 131.273 211.639 131.273C210.948 131.273 210.417 131.326 210.045 131.432C209.674 131.538 209.382 131.724 209.169 131.963C208.957 132.229 208.85 132.627 208.771 133.131C208.718 133.662 208.691 134.326 208.691 135.176V139.876C208.691 140.832 208.797 141.549 208.983 142C209.196 142.452 209.674 142.93 210.497 143.408C211.187 143.859 212.09 144.364 213.232 144.921C214.374 145.479 215.622 146.196 217.003 147.019C218.012 147.656 218.809 148.241 219.447 148.772C220.084 149.303 220.535 149.887 220.827 150.524C221.12 151.162 221.332 151.932 221.438 152.808C221.544 153.684 221.598 154.799 221.598 156.127V163.775C221.598 165.979 221.465 167.758 221.199 169.059C220.934 170.387 220.456 171.396 219.739 172.113C219.022 172.803 218.012 173.281 216.738 173.494C215.463 173.706 213.79 173.812 211.745 173.812C209.7 173.812 208.187 173.706 206.938 173.494C205.69 173.281 204.708 172.83 203.991 172.139C203.274 171.449 202.769 170.466 202.477 169.139C202.185 167.811 202.052 166.032 202.052 163.775V154.322H208.797V163.775C208.797 164.625 208.824 165.288 208.877 165.793C208.93 166.297 209.063 166.696 209.275 166.961C209.488 167.253 209.753 167.439 210.152 167.519C210.524 167.625 211.055 167.678 211.692 167.678C212.967 167.678 213.79 167.439 214.135 166.961C214.48 166.483 214.64 165.421 214.64 163.775V156.605C214.64 155.331 214.56 154.401 214.401 153.844C214.241 153.286 213.79 152.728 213.02 152.224C212.621 151.932 212.117 151.64 211.506 151.294C210.895 150.949 210.258 150.604 209.594 150.206C208.904 149.834 208.213 149.436 207.523 149.037C206.832 148.639 206.195 148.267 205.637 147.895C204.787 147.338 204.123 146.807 203.619 146.302C203.114 145.798 202.742 145.24 202.477 144.656C202.211 144.045 202.052 143.381 201.972 142.611C201.893 141.841 201.84 140.912 201.84 139.77V135.203C201.84 132.999 201.972 131.219 202.238 129.892C202.503 128.564 202.981 127.555 203.672 126.811C204.362 126.094 205.345 125.617 206.62 125.404C207.894 125.192 209.541 125.085 211.586 125.085C213.631 125.085 215.277 125.192 216.552 125.404C217.827 125.617 218.809 126.094 219.526 126.811C220.243 127.528 220.748 128.564 220.987 129.892C221.252 131.219 221.385 132.972 221.385 135.203V141.098H214.64L214.587 141.071Z" fill="#272A5F"/>
<path d="M0.222015 55.4341H4.63041V108.436H35.2767L34.4534 112.525H0.222015V55.4341Z" fill="#272A5F"/>
<path d="M90.3285 83.5549C90.3285 99.1156 82.0163 113.322 64.4092 113.322C48.3425 113.322 38.968 100.364 38.968 83.9797C38.968 67.5959 48.0238 54.6375 64.9669 54.6375C80.6087 54.6375 90.3285 66.9586 90.3285 83.5814V83.5549ZM43.6951 83.7142C43.6951 96.8319 50.9451 109.233 64.6483 109.233C79.4137 109.233 85.6014 97.1771 85.6014 83.6345C85.6014 70.0919 78.5905 58.7002 64.8076 58.7002C50.1218 58.7002 43.6951 70.8355 43.6951 83.7407V83.7142Z" fill="#272A5F"/>
<path d="M102.89 55.4341H137.466V59.5234H107.298V81.0322H135.581V85.1216H107.298V112.525H102.89V55.4341Z" fill="#272A5F"/>
<path d="M162.244 59.4968H143.096V55.4075H185.985V59.4968H166.732V112.499H162.244V59.4968Z" fill="#272A5F"/>
<path d="M212.223 112.499V91.0697C212.223 90.5918 212.064 90.0076 211.904 89.7686L191.536 55.4607H196.661C202.371 65.1529 212.303 82.0413 214.773 86.2635C217.216 82.0148 227.254 65.3123 233.362 55.4607H238.249L216.977 90.1138C216.817 90.4324 216.738 90.7777 216.738 91.3353V112.525H212.25L212.223 112.499Z" fill="#272A5F"/>
<path d="M95.1086 29.1987C95.1086 13.5317 82.4146 0.838867 66.7462 0.838867C51.0778 0.838867 38.3838 13.5317 38.3838 29.1987C38.3838 30.2608 38.4635 31.2964 38.5697 32.332H46.935C46.7757 31.2964 46.6694 30.2608 46.6694 29.1987C46.6694 18.1256 55.6456 9.12375 66.7462 9.12375C77.8469 9.12375 86.6105 18.099 86.823 29.1987C87.0089 38.705 82.2021 47.76 71.8451 48.3973C66.6134 48.7159 61.249 48.3707 55.9908 48.3707C45.3151 48.3707 36.6576 57.0274 36.6576 67.7021V99.806H95.1086V30.6591H95.0555C95.0555 30.1812 95.1086 29.6766 95.1086 29.1987Z" fill="#272A5F"/>
<path d="M92.5327 104.745C94.0464 103.869 95.2945 101.718 95.2945 99.9919V72.5084C95.2945 70.7559 94.0464 68.6315 92.5327 67.7553L68.7114 54.0002C67.1977 53.1239 64.7279 53.1239 63.2142 54.0002L39.393 67.7553C37.8792 68.6315 36.6311 70.7824 36.6311 72.5084V99.9919C36.6311 101.745 37.8792 103.869 39.393 104.745L63.2142 118.5C64.7279 119.376 67.1977 119.376 68.7114 118.5L92.5327 104.745Z" fill="#272A5F"/>
<path d="M85.3358 99.7529C86.4512 99.1156 87.3541 97.5489 87.3541 96.2743V76.2259C87.3541 74.9514 86.4512 73.3847 85.3358 72.7474L67.9678 62.7099C66.8525 62.0726 65.0466 62.0726 63.9578 62.7099L46.5898 72.7474C45.4744 73.3847 44.5715 74.9514 44.5715 76.2259V96.2743C44.5715 97.5489 45.4744 99.1156 46.5898 99.7529L63.9578 109.79C65.0732 110.428 66.879 110.428 67.9678 109.79L85.3358 99.7529Z" fill="white"/>
<path d="M66.2417 68.6582L50.5467 77.4211L50.8123 109.313L65.5246 114.252L81.3789 109.313V77.5804L66.2417 68.6582Z" fill="#272A5F"/>
<path d="M64.6748 80.9792H58.1153V87.5381H64.6748V80.9792Z" fill="white"/>
<path d="M73.8368 80.9792H67.2773V87.5381H73.8368V80.9792Z" fill="white"/>
<path d="M64.6748 89.9014H58.1153V96.4602H64.6748V89.9014Z" fill="white"/>
<path d="M73.8368 89.9014H67.2773V96.4602H73.8368V89.9014Z" fill="white"/>
</svg>
